<?xml version="1.0" encoding="utf-8"?>
<!-- Generator: Adobe Illustrator 15.1.0, SVG Export Plug-In . SVG Version: 6.00 Build 0)  -->
<!DOCTYPE svg PUBLIC "-//W3C//DTD SVG 1.1//EN" "http://www.w3.org/Graphics/SVG/1.1/DTD/svg11.dtd">
<svg version="1.1" id="Layer_1" xmlns="http://www.w3.org/2000/svg" xmlns:xlink="http://www.w3.org/1999/xlink" x="0px" y="0px"
	 width="23.327px" height="35.193px" viewBox="0 0 23.327 35.193" enable-background="new 0 0 23.327 35.193" xml:space="preserve">
<polygon points="-74.423,-13.548 -74.423,-13.548 -74.923,-13.548 -74.923,-13.548 -74.923,-13.548 -74.923,-13.548 
	-74.423,-13.548 -74.423,-13.548 "/>
<path d="M23.375,11.688C23.375,5.232,18.143,0,11.688,0S0,5.232,0,11.688c0,1.819,0.4,3.447,1.074,4.872L1.07,16.559
	c0,0,0.009,0.018,0.022,0.046c0.014,0.027,0.027,0.054,0.04,0.081c0.648,1.311,6.274,12.698,7.569,15.642
	c1.631,3.705,4.239,3.936,5.971,0c1.174-2.667,5.901-12.265,7.262-15.019c0.091-0.166,0.168-0.339,0.251-0.509
	c0.075-0.151,0.119-0.24,0.119-0.24l-0.003,0C22.983,15.075,23.375,13.429,23.375,11.688z M11.688,18.083
	c-2.798,0-6.396-2.342-6.396-6.396c0-3.532,2.863-6.396,6.396-6.396s6.396,2.863,6.396,6.396S15.22,18.083,11.688,18.083z"/>
</svg>
