<?xml version="1.0" encoding="utf-8"?>
<!-- Generator: Adobe Illustrator 15.1.0, SVG Export Plug-In . SVG Version: 6.00 Build 0)  -->
<!DOCTYPE svg PUBLIC "-//W3C//DTD SVG 1.1//EN" "http://www.w3.org/Graphics/SVG/1.1/DTD/svg11.dtd">
<svg version="1.1" id="Layer_1" xmlns="http://www.w3.org/2000/svg" xmlns:xlink="http://www.w3.org/1999/xlink" x="0px" y="0px"
	 width="37.316px" height="28.811px" viewBox="0 0 37.316 28.811" enable-background="new 0 0 37.316 28.811" xml:space="preserve">
<polygon points="11.65,-26.058 11.65,-26.058 11.15,-26.058 11.15,-26.058 11.15,-26.058 11.15,-26.058 11.65,-26.058 
	11.65,-26.058 "/>
<path d="M34.415,0H2.9C1.301,0,0,1.301,0,2.901v23.01c0,1.599,1.301,2.9,2.9,2.9h31.514c1.6,0,2.901-1.302,2.901-2.9V2.901
	C37.316,1.301,36.014,0,34.415,0z M2.9,2.3h31.514c0.331,0,0.601,0.27,0.601,0.601v3.341l-15.77,12.48
	c-0.248,0.198-0.797,0.199-1.047,0.001L2.3,6.141v-3.24C2.3,2.569,2.569,2.3,2.9,2.3z M34.415,26.51H2.9
	c-0.331,0-0.601-0.269-0.601-0.6V9.074l14.47,11.452c0.533,0.422,1.226,0.654,1.951,0.654c0.727,0,1.42-0.232,1.953-0.655
	l14.342-11.35v16.735C35.015,26.242,34.746,26.51,34.415,26.51z"/>
</svg>
